<?xml version="1.0" encoding="UTF-8" standalone="no"?>
<!DOCTYPE svg PUBLIC "-//W3C//DTD SVG 1.1//EN"
 "http://www.w3.org/Graphics/SVG/1.1/DTD/svg11.dtd">
<!-- Generated by graphviz version 2.40.1 (20161225.0304)
 -->
<!-- Title: dependencies Pages: 1 -->
<svg width="1673pt" height="284pt"
 viewBox="0.00 0.00 1673.00 284.00" xmlns="http://www.w3.org/2000/svg" xmlns:xlink="http://www.w3.org/1999/xlink">
<g id="graph0" class="graph" transform="scale(1 1) rotate(0) translate(4 280)">
<title>dependencies</title>
<polygon fill="#ffffff" stroke="transparent" points="-4,4 -4,-280 1669,-280 1669,4 -4,4"/>
<text text-anchor="start" x="811.5091" y="-42.4" font-family="sans-serif" font-weight="bold" font-size="14.00" fill="#000000">Legend</text>
<polygon fill="#ffffb3" stroke="transparent" points="598.5,-10 598.5,-30 618.5,-30 618.5,-10 598.5,-10"/>
<text text-anchor="start" x="622.129" y="-15.4" font-family="sans-serif" font-size="14.00" fill="#000000"> &#160;Declarations</text>
<polygon fill="#8dd3c7" stroke="transparent" points="711.5,-10 711.5,-30 731.5,-30 731.5,-10 711.5,-10"/>
<text text-anchor="start" x="735.2251" y="-15.4" font-family="sans-serif" font-size="14.00" fill="#000000"> &#160;Module</text>
<polygon fill="#80b1d3" stroke="transparent" points="797.5,-10 797.5,-30 817.5,-30 817.5,-10 797.5,-10"/>
<text text-anchor="start" x="821.2812" y="-15.4" font-family="sans-serif" font-size="14.00" fill="#000000"> &#160;Bootstrap</text>
<polygon fill="#fdb462" stroke="transparent" points="894.5,-10 894.5,-30 914.5,-30 914.5,-10 894.5,-10"/>
<text text-anchor="start" x="918.1732" y="-15.4" font-family="sans-serif" font-size="14.00" fill="#000000"> &#160;Providers</text>
<polygon fill="#fb8072" stroke="transparent" points="990.5,-10 990.5,-30 1010.5,-30 1010.5,-10 990.5,-10"/>
<text text-anchor="start" x="1014.2258" y="-15.4" font-family="sans-serif" font-size="14.00" fill="#000000"> &#160;Exports</text>
<g id="clust1" class="cluster">
<title>cluster_AppModule</title>
<polygon fill="none" stroke="#000000" stroke-dasharray="1,5" points="8,-70 8,-268 1657,-268 1657,-70 8,-70"/>
</g>
<g id="clust2" class="cluster">
<title>cluster_AppModule_declarations</title>
<polygon fill="none" stroke="#000000" points="938,-78 938,-130 1649,-130 1649,-78 938,-78"/>
</g>
<g id="clust8" class="cluster">
<title>cluster_AppModule_imports</title>
<polygon fill="none" stroke="#000000" points="16,-78 16,-130 930,-130 930,-78 16,-78"/>
</g>
<g id="clust10" class="cluster">
<title>cluster_AppModule_bootstrap</title>
<polygon fill="none" stroke="#000000" points="807,-208 807,-260 931,-260 931,-208 807,-208"/>
</g>
<!-- AppComponent -->
<g id="node1" class="node">
<title>AppComponent</title>
<polygon fill="#ffffb3" stroke="#000000" points="1640.9399,-122 1535.0601,-122 1535.0601,-86 1640.9399,-86 1640.9399,-122"/>
<text text-anchor="middle" x="1588" y="-99.8" font-family="Times,serif" font-size="14.00" fill="#000000">AppComponent</text>
</g>
<!-- AppModule -->
<g id="node6" class="node">
<title>AppModule</title>
<polygon fill="#8dd3c7" stroke="#000000" points="910.6571,-187 907.6571,-191 886.6571,-191 883.6571,-187 827.3429,-187 827.3429,-151 910.6571,-151 910.6571,-187"/>
<text text-anchor="middle" x="869" y="-164.8" font-family="Times,serif" font-size="14.00" fill="#000000">AppModule</text>
</g>
<!-- AppComponent&#45;&gt;AppModule -->
<g id="edge1" class="edge">
<title>AppComponent&#45;&gt;AppModule</title>
<path fill="none" stroke="#000000" d="M1588,-122.2479C1588,-145.0179 1588,-181 1588,-181 1588,-181 920.7643,-181 920.7643,-181"/>
<polygon fill="#000000" stroke="#000000" points="920.7643,-177.5001 910.7643,-181 920.7642,-184.5001 920.7643,-177.5001"/>
</g>
<!-- BikesComponent -->
<g id="node2" class="node">
<title>BikesComponent</title>
<polygon fill="#ffffb3" stroke="#000000" points="1517.719,-122 1404.281,-122 1404.281,-86 1517.719,-86 1517.719,-122"/>
<text text-anchor="middle" x="1461" y="-99.8" font-family="Times,serif" font-size="14.00" fill="#000000">BikesComponent</text>
</g>
<!-- BikesComponent&#45;&gt;AppModule -->
<g id="edge2" class="edge">
<title>BikesComponent&#45;&gt;AppModule</title>
<path fill="none" stroke="#000000" d="M1461,-122.2843C1461,-143.3211 1461,-175 1461,-175 1461,-175 921.1006,-175 921.1006,-175"/>
<polygon fill="#000000" stroke="#000000" points="921.1006,-171.5001 911.1006,-175 921.1006,-178.5001 921.1006,-171.5001"/>
</g>
<!-- BikeFormComponent -->
<g id="node3" class="node">
<title>BikeFormComponent</title>
<polygon fill="#ffffb3" stroke="#000000" points="1386.108,-122 1247.892,-122 1247.892,-86 1386.108,-86 1386.108,-122"/>
<text text-anchor="middle" x="1317" y="-99.8" font-family="Times,serif" font-size="14.00" fill="#000000">BikeFormComponent</text>
</g>
<!-- BikeFormComponent&#45;&gt;AppModule -->
<g id="edge3" class="edge">
<title>BikeFormComponent&#45;&gt;AppModule</title>
<path fill="none" stroke="#000000" d="M1317,-122.1061C1317,-141.3391 1317,-169 1317,-169 1317,-169 920.7445,-169 920.7445,-169"/>
<polygon fill="#000000" stroke="#000000" points="920.7445,-165.5001 910.7445,-169 920.7444,-172.5001 920.7445,-165.5001"/>
</g>
<!-- AccessoriesComponent -->
<g id="node4" class="node">
<title>AccessoriesComponent</title>
<polygon fill="#ffffb3" stroke="#000000" points="1230.1825,-122 1081.8175,-122 1081.8175,-86 1230.1825,-86 1230.1825,-122"/>
<text text-anchor="middle" x="1156" y="-99.8" font-family="Times,serif" font-size="14.00" fill="#000000">AccessoriesComponent</text>
</g>
<!-- AccessoriesComponent&#45;&gt;AppModule -->
<g id="edge4" class="edge">
<title>AccessoriesComponent&#45;&gt;AppModule</title>
<path fill="none" stroke="#000000" d="M1156,-122.0225C1156,-139.3734 1156,-163 1156,-163 1156,-163 920.7323,-163 920.7323,-163"/>
<polygon fill="#000000" stroke="#000000" points="920.7323,-159.5001 910.7323,-163 920.7322,-166.5001 920.7323,-159.5001"/>
</g>
<!-- FrameComponent -->
<g id="node5" class="node">
<title>FrameComponent</title>
<polygon fill="#ffffb3" stroke="#000000" points="1063.5954,-122 946.4046,-122 946.4046,-86 1063.5954,-86 1063.5954,-122"/>
<text text-anchor="middle" x="1005" y="-99.8" font-family="Times,serif" font-size="14.00" fill="#000000">FrameComponent</text>
</g>
<!-- FrameComponent&#45;&gt;AppModule -->
<g id="edge5" class="edge">
<title>FrameComponent&#45;&gt;AppModule</title>
<path fill="none" stroke="#000000" d="M1005,-122.2396C1005,-137.5706 1005,-157 1005,-157 1005,-157 920.9142,-157 920.9142,-157"/>
<polygon fill="#000000" stroke="#000000" points="920.9142,-153.5001 910.9142,-157 920.9142,-160.5001 920.9142,-153.5001"/>
</g>
<!-- AppComponent  -->
<g id="node13" class="node">
<title>AppComponent </title>
<polygon fill="#80b1d3" stroke="#000000" points="923.439,-252 814.561,-252 814.561,-216 923.439,-216 923.439,-252"/>
<text text-anchor="middle" x="869" y="-229.8" font-family="Times,serif" font-size="14.00" fill="#000000">AppComponent </text>
</g>
<!-- AppModule&#45;&gt;AppComponent  -->
<g id="edge12" class="edge">
<title>AppModule&#45;&gt;AppComponent </title>
<path fill="none" stroke="#000000" stroke-dasharray="1,5" d="M869,-187.1061C869,-187.1061 869,-205.991 869,-205.991"/>
<polygon fill="#000000" stroke="#000000" points="865.5001,-205.9909 869,-215.991 872.5001,-205.991 865.5001,-205.9909"/>
</g>
<!-- BrowserModule -->
<g id="node7" class="node">
<title>BrowserModule</title>
<polygon fill="#8dd3c7" stroke="#000000" points="922.4734,-122 919.4734,-126 898.4734,-126 895.4734,-122 815.5266,-122 815.5266,-86 922.4734,-86 922.4734,-122"/>
<text text-anchor="middle" x="869" y="-99.8" font-family="Times,serif" font-size="14.00" fill="#000000">BrowserModule</text>
</g>
<!-- BrowserModule&#45;&gt;AppModule -->
<g id="edge6" class="edge">
<title>BrowserModule&#45;&gt;AppModule</title>
<path fill="none" stroke="#000000" d="M869,-122.1061C869,-122.1061 869,-140.991 869,-140.991"/>
<polygon fill="#000000" stroke="#000000" points="865.5001,-140.9909 869,-150.991 872.5001,-140.991 865.5001,-140.9909"/>
</g>
<!-- HttpModule -->
<g id="node8" class="node">
<title>HttpModule</title>
<polygon fill="#8dd3c7" stroke="#000000" points="797.4387,-122 794.4387,-126 773.4387,-126 770.4387,-122 712.5613,-122 712.5613,-86 797.4387,-86 797.4387,-122"/>
<text text-anchor="middle" x="755" y="-99.8" font-family="Times,serif" font-size="14.00" fill="#000000">HttpModule</text>
</g>
<!-- HttpModule&#45;&gt;AppModule -->
<g id="edge7" class="edge">
<title>HttpModule&#45;&gt;AppModule</title>
<path fill="none" stroke="#000000" d="M755,-122.2396C755,-137.5706 755,-157 755,-157 755,-157 817.1979,-157 817.1979,-157"/>
<polygon fill="#000000" stroke="#000000" points="817.198,-160.5001 827.1979,-157 817.1979,-153.5001 817.198,-160.5001"/>
</g>
<!-- AngularFireModule.initializeApp(args) -->
<g id="node9" class="node">
<title>AngularFireModule.initializeApp(args)</title>
<polygon fill="#8dd3c7" stroke="#000000" points="694.7057,-122 691.7057,-126 670.7057,-126 667.7057,-122 457.2943,-122 457.2943,-86 694.7057,-86 694.7057,-122"/>
<text text-anchor="middle" x="576" y="-99.8" font-family="Times,serif" font-size="14.00" fill="#000000">AngularFireModule.initializeApp(args)</text>
</g>
<!-- AngularFireModule.initializeApp(args)&#45;&gt;AppModule -->
<g id="edge8" class="edge">
<title>AngularFireModule.initializeApp(args)&#45;&gt;AppModule</title>
<path fill="none" stroke="#000000" d="M576,-122.0225C576,-139.3734 576,-163 576,-163 576,-163 817.3314,-163 817.3314,-163"/>
<polygon fill="#000000" stroke="#000000" points="817.3314,-166.5001 827.3314,-163 817.3314,-159.5001 817.3314,-166.5001"/>
</g>
<!-- AngularFireDatabaseModule -->
<g id="node10" class="node">
<title>AngularFireDatabaseModule</title>
<polygon fill="#8dd3c7" stroke="#000000" points="439.771,-122 436.771,-126 415.771,-126 412.771,-122 260.229,-122 260.229,-86 439.771,-86 439.771,-122"/>
<text text-anchor="middle" x="350" y="-99.8" font-family="Times,serif" font-size="14.00" fill="#000000">AngularFireDatabaseModule</text>
</g>
<!-- AngularFireDatabaseModule&#45;&gt;AppModule -->
<g id="edge9" class="edge">
<title>AngularFireDatabaseModule&#45;&gt;AppModule</title>
<path fill="none" stroke="#000000" d="M350,-122.1061C350,-141.3391 350,-169 350,-169 350,-169 816.9677,-169 816.9677,-169"/>
<polygon fill="#000000" stroke="#000000" points="816.9677,-172.5001 826.9677,-169 816.9676,-165.5001 816.9677,-172.5001"/>
</g>
<!-- ReactiveFormsModule -->
<g id="node11" class="node">
<title>ReactiveFormsModule</title>
<polygon fill="#8dd3c7" stroke="#000000" points="242.3047,-122 239.3047,-126 218.3047,-126 215.3047,-122 97.6953,-122 97.6953,-86 242.3047,-86 242.3047,-122"/>
<text text-anchor="middle" x="170" y="-99.8" font-family="Times,serif" font-size="14.00" fill="#000000">ReactiveFormsModule</text>
</g>
<!-- ReactiveFormsModule&#45;&gt;AppModule -->
<g id="edge10" class="edge">
<title>ReactiveFormsModule&#45;&gt;AppModule</title>
<path fill="none" stroke="#000000" d="M170,-122.2843C170,-143.3211 170,-175 170,-175 170,-175 817.1085,-175 817.1085,-175"/>
<polygon fill="#000000" stroke="#000000" points="817.1085,-178.5001 827.1085,-175 817.1084,-171.5001 817.1085,-178.5001"/>
</g>
<!-- routing -->
<g id="node12" class="node">
<title>routing</title>
<polygon fill="#8dd3c7" stroke="#000000" points="80.4435,-122 77.4435,-126 56.4435,-126 53.4435,-122 23.5565,-122 23.5565,-86 80.4435,-86 80.4435,-122"/>
<text text-anchor="middle" x="52" y="-99.8" font-family="Times,serif" font-size="14.00" fill="#000000">routing</text>
</g>
<!-- routing&#45;&gt;AppModule -->
<g id="edge11" class="edge">
<title>routing&#45;&gt;AppModule</title>
<path fill="none" stroke="#000000" d="M52,-122.2479C52,-145.0179 52,-181 52,-181 52,-181 817.0787,-181 817.0787,-181"/>
<polygon fill="#000000" stroke="#000000" points="817.0787,-184.5001 827.0787,-181 817.0787,-177.5001 817.0787,-184.5001"/>
</g>
</g>
</svg>
